# xmcd
#
# Track frame offsets:
#	210
#	14280
#	27626
#	41169
#	55128
#	68933
#	82800
#	96339
#	110499
#	124952
#	138632
#	153867
#	165749
#	178848
#	192297
#	205843
#	219791
#	233214
#	245976
#	258691
#	272155
#	285328
#	298808
#
# Disc length: 4172 seconds
#
# Revision: 2
# Processed by: cddbd v1.4PL0 Copyright (c) Steve Scherf et al.
# Submitted via: CDmax 1.7.6
#
DISCID=62104a17
DTITLE=The Skillet Lickers - Volume 2, 1927 - 1928
DYEAR=1900
DGENRE=
TTITLE0=Drink 'Em Down
TTITLE1=The Darktown Strutters' Ball
TTITLE2=A Fiddlers' Convention In Georgia - Part 1
TTITLE3=A Fiddlers' Convention In Georgia - Part 2
TTITLE4=Old McDonald Had A Farm
TTITLE5=Bile Them Cabbage Down
TTITLE6=Big Ball In Town
TTITLE7=It's A Long Way To Tipperary
TTITLE8=Buckin' Mule
TTITLE9=Uncle Bud
TTITLE10=Johnson's Old Grey Mule
TTITLE11=Hen Cackle
TTITLE12=Cumberland Gap
TTITLE13=Cotton-Eyed Joe
TTITLE14=Black Eyed Susie
TTITLE15=Prettiest little Girl In The County
TTITLE16=Slow Buck
TTITLE17=Settin' In The Chimney Jamb
TTITLE18=Sal Let Me Chaw Your Rosin
TTITLE19=Possum Hunt On Stump House Mountain - Part 1
TTITLE20=Possum Hunt On Stump House Mountain - Part 2
TTITLE21=Hog Killing Day - Part 1
TTITLE22=Hog Killing Day - Part 2
EXTD=Document DOCD-8057
EXTT0=
EXTT1=
EXTT2=
EXTT3=
EXTT4=
EXTT5=
EXTT6=
EXTT7=
EXTT8=
EXTT9=
EXTT10=
EXTT11=
EXTT12=
EXTT13=
EXTT14=
EXTT15=
EXTT16=
EXTT17=
EXTT18=
EXTT19=
EXTT20=
EXTT21=
EXTT22=
PLAYORDER=
